<svg viewBox="0 0 24 24" xmlns="http://www.w3.org/2000/svg"><path d="m12 19a7 7 0 1 1 7-7 7.00787 7.00787 0 0 1 -7 7zm0-13a6 6 0 1 0 6 6 6.00657 6.00657 0 0 0 -6-6z"/><path d="m12 4a.49971.49971 0 0 1 -.5-.5v-3a.5.5 0 0 1 1 0v3a.49971.49971 0 0 1 -.5.5z"/><path d="m12 24a.49971.49971 0 0 1 -.5-.5v-3a.5.5 0 0 1 1 0v3a.49971.49971 0 0 1 -.5.5z"/><path d="m5.98975 6.48975a.49839.49839 0 0 1 -.35352-.14649l-2.12158-2.12158a.49995.49995 0 0 1 .707-.707l2.12161 2.12155a.5.5 0 0 1 -.35351.85352z"/><path d="m20.13184 20.63184a.49839.49839 0 0 1 -.35352-.14649l-2.12158-2.12158a.49995.49995 0 0 1 .707-.707l2.12158 2.12158a.5.5 0 0 1 -.35351.85352z"/><path d="m3.5 12.5h-3a.5.5 0 0 1 0-1h3a.5.5 0 0 1 0 1z"/><path d="m23.5 12.5h-3a.5.5 0 0 1 0-1h3a.5.5 0 0 1 0 1z"/><path d="m3.86816 20.63184a.5.5 0 0 1 -.35351-.85352l2.12158-2.12158a.49995.49995 0 0 1 .707.707l-2.12155 2.12161a.49839.49839 0 0 1 -.35352.14649z"/><path d="m18.01025 6.48975a.5.5 0 0 1 -.35351-.85352l2.12158-2.12158a.49995.49995 0 1 1 .707.707l-2.12155 2.12161a.49839.49839 0 0 1 -.35352.14649z"/></svg>