<svg enable-background="new 0 0 512 512" height="512" viewBox="0 0 512 512" width="512" xmlns="http://www.w3.org/2000/svg"><path d="m421.641 86.546c-53.379-53.378-130.913-77.256-205.121-63.473-73.691 13.686-137.596 64.461-167.946 132.967-7.477 16.878-12.877 34.665-16.071 52.845-1.552 8.833-2.586 17.755-3.104 26.708-.433 7.474-2.943 19.588 6.118 22.962 8.133 3.028 13.432-4.076 13.499-11.347.077-8.43.657-16.854 1.742-25.215 2.03-15.638 5.838-31.04 11.335-45.82 21.579-58.016 69.024-104.642 127.421-125.178 60.216-21.174 128.426-13.281 182.21 21.067 52.511 33.536 88.31 89.932 95.77 151.842 7.593 63.016-14.293 127.141-58.773 172.397-21.555 21.931-47.882 39.07-76.707 49.792-14.78 5.498-30.183 9.306-45.82 11.335-7.71 1.001-15.475 1.572-23.247 1.716-7.554.14-16.91 3.865-13.313 13.525 3.162 8.492 13.588 6.581 20.705 6.238 9.71-.468 19.39-1.541 28.964-3.224 18.181-3.194 35.967-8.594 52.845-16.071 34.145-15.126 64.334-38.745 87.502-68.013 46.621-58.895 61.299-139.019 39.092-210.744-11.002-35.527-30.815-68.023-57.101-94.309-43.442-43.441 43.441 43.441 0 0z"/><path d="m259.007 289.181c21.772 0 39.999-18.227 39.999-40s-18.227-40-39.999-40c-21.773 0-40 18.227-40 40s18.226 40 40 40zm0-60c25.786 0 25.786 40 0 40-25.787 0-25.787-40 0-40z"/><path d="m129.007 249.181c0 7.574 8.499 12.471 15.048 8.635 7.195-4.215 4.92-15.233 5.793-22.267 1.931-15.55 7.242-30.619 15.469-43.955 16.33-26.471 43.716-45.259 74.361-50.713 64.828-11.539 126.93 38.527 129.259 104.36 1.118 31.608-11.739 62.633-34.826 84.239-11.263 10.541-24.723 18.688-39.308 23.722-7.183 2.479-14.624 4.202-22.165 5.139-7.033.873-18.05-1.403-22.266 5.793-3.836 6.549 1.062 15.047 8.635 15.047 8.385 0 16.77-.803 25-2.412 15.271-2.986 29.961-8.762 43.192-16.946 26.201-16.208 46.222-41.67 55.634-71.021 19.714-61.468-10.31-129.841-68.614-157.305-58.484-27.549-130.169-6.437-164.873 47.933-13.25 20.757-20.339 45.128-20.339 69.751z"/><path d="m298.777 204.256c9.656 8.55 22.914-6.425 13.258-14.975-9.304-8.236-20.491-14.247-32.508-17.415-22.883-6.035-47.901-1.508-67.145 12.293-7.021 5.036-22.911 16.814-12.416 26.107 5.258 4.654 11.28 2.089 15.479-2.347 4.482-4.737 9.734-8.734 15.504-11.778 21.849-11.528 49.328-8.263 67.828 8.115 4.135 3.661-24.771-21.931 0 0z"/><path d="m419.006 249.181c0 7.574 8.499 12.471 15.047 8.635 7.335-4.296 4.969-15.287 4.438-22.313-1.191-15.791-4.479-31.413-9.772-46.337-10.274-28.968-28.078-55.084-51.183-75.342-23.278-20.41-51.739-34.667-82.067-40.932-7.516-1.553-15.132-2.619-22.785-3.197-7.025-.531-18.015-2.896-22.312 4.438-3.836 6.549 1.062 15.047 8.635 15.047 8.421 0 16.843.657 25.161 1.976 76.638 12.157 134.838 80.475 134.838 158.025z"/><path d="m229.294 285.404c-2.349-1.899-5.432-2.634-8.382-2.001l-140 30c-4.611.987-7.905 5.063-7.905 9.777v40 63.384c-32.065-15.273-64.159 23.752-43.238 52.273 20.521 27.975 66.3 10.622 63.08-23.935.098-.561.158-1.134.158-1.723v-81.916l120-25.714v51.014c-32.065-15.273-64.159 23.752-43.238 52.273 20.521 27.975 66.3 10.622 63.08-23.935.098-.561.158-1.134.158-1.723v-90-40c0-3.017-1.364-5.875-3.713-7.774s2.349 1.899 0 0zm-171.287 187.777c-19.341 0-19.341-30 0-30s19.341 30 0 30zm35-141.916 120-25.714v19.546l-120 25.714zm105 111.916c-19.341 0-19.341-30 0-30s19.341 30 0 30z"/></svg>