<?xml version="1.0" encoding="UTF-8"?>
<svg xmlns="http://www.w3.org/2000/svg" xmlns:xlink="http://www.w3.org/1999/xlink" version="1.1" id="Capa_1" x="0px" y="0px" viewBox="0 0 512 512" style="enable-background:new 0 0 512 512;" xml:space="preserve" width="512" height="512">
<g>
	<g>
		<path style="fill:none;stroke:#000000;stroke-width:15;stroke-linecap:round;stroke-linejoin:round;stroke-miterlimit:10;" d="&#10;&#9;&#9;&#9;M306.423,400.281c-19.027-14.243-28.632-1.413-47.658-15.656c-19.028-14.244-9.423-27.074-28.45-41.318&#10;&#9;&#9;&#9;c-19.027-14.244-28.632-1.413-47.659-15.657c-19.029-14.245-9.425-27.076-28.454-41.321c-5.892-4.41-10.879-6.223-15.523-7.05&#10;&#9;&#9;&#9;v158.383h191.586C317.385,424.958,323.682,413.201,306.423,400.281z"/>
	</g>
	<g>
		<g>
			<g>
				<path style="fill:none;stroke:#000000;stroke-width:15;stroke-linecap:round;stroke-linejoin:round;stroke-miterlimit:10;" d="&#10;&#9;&#9;&#9;&#9;&#9;M200.651,257.283l29.742-78.092c0.608-1.486,2.711-1.488,3.322-0.003l29.472,78.096"/>
				
					<line style="fill:none;stroke:#000000;stroke-width:15;stroke-linecap:round;stroke-linejoin:round;stroke-miterlimit:10;" x1="209.927" y1="237.834" x2="254.062" y2="237.834"/>
			</g>
			<g>
				<g>
					
						<line style="fill:none;stroke:#000000;stroke-width:15;stroke-linecap:round;stroke-linejoin:round;stroke-miterlimit:10;" x1="336.914" y1="185.46" x2="336.914" y2="257.283"/>
				</g>
				
					<circle style="fill:none;stroke:#000000;stroke-width:15;stroke-linecap:round;stroke-linejoin:round;stroke-miterlimit:10;" cx="312.83" cy="233.2" r="24.083"/>
			</g>
		</g>
		
			<line style="fill:none;stroke:#000000;stroke-width:15;stroke-linecap:round;stroke-linejoin:round;stroke-miterlimit:10;" x1="254.197" y1="326.376" x2="340.801" y2="326.376"/>
		<g>
			
				<line style="fill:none;stroke:#000000;stroke-width:15;stroke-linecap:round;stroke-linejoin:round;stroke-miterlimit:10;" x1="171.199" y1="405.39" x2="208.651" y2="405.39"/>
		</g>
		<g>
			
				<line style="fill:none;stroke:#000000;stroke-width:15;stroke-linecap:round;stroke-linejoin:round;stroke-miterlimit:10;" x1="171.199" y1="379.307" x2="208.651" y2="379.307"/>
		</g>
		
			<line style="fill:none;stroke:#000000;stroke-width:15;stroke-linecap:round;stroke-linejoin:round;stroke-miterlimit:10;" x1="165.969" y1="57.881" x2="251.389" y2="57.881"/>
		
			<line style="fill:none;stroke:#000000;stroke-width:15;stroke-linecap:round;stroke-linejoin:round;stroke-miterlimit:10;" x1="165.969" y1="90.402" x2="251.389" y2="90.402"/>
		
			<line style="fill:none;stroke:#000000;stroke-width:15;stroke-linecap:round;stroke-linejoin:round;stroke-miterlimit:10;" x1="165.969" y1="122.924" x2="251.389" y2="122.924"/>
	</g>
	
		<polyline style="fill:none;stroke:#000000;stroke-width:15;stroke-linecap:round;stroke-linejoin:round;stroke-miterlimit:10;" points="&#10;&#9;&#9;373.321,349.799 373.321,7.5 138.679,7.5 138.679,437.662 373.321,437.662 373.321,382.998 &#9;"/>
	<g>
		
			<rect x="163.958" y="437.662" style="fill:none;stroke:#000000;stroke-width:15;stroke-linecap:round;stroke-linejoin:round;stroke-miterlimit:10;" width="37.035" height="66.838"/>
		
			<rect x="311.006" y="437.662" style="fill:none;stroke:#000000;stroke-width:15;stroke-linecap:round;stroke-linejoin:round;stroke-miterlimit:10;" width="37.035" height="66.838"/>
	</g>
	
		<line style="fill:none;stroke:#000000;stroke-width:15;stroke-linecap:round;stroke-linejoin:round;stroke-miterlimit:10;" x1="30.619" y1="463.2" x2="30.619" y2="504.5"/>
	
		<line style="fill:none;stroke:#000000;stroke-width:15;stroke-linecap:round;stroke-linejoin:round;stroke-miterlimit:10;" x1="81.947" y1="504.5" x2="81.947" y2="448.025"/>
	<path style="fill:none;stroke:#000000;stroke-width:15;stroke-linecap:round;stroke-linejoin:round;stroke-miterlimit:10;" d="&#10;&#9;&#9;M53.534,301.709c-16.62-12.442-25.01-1.235-41.631-13.677c-1.722-1.289-3.163-2.564-4.403-3.829v177.26&#10;&#9;&#9;c0,3.08,2.98,5.281,5.924,4.376l88.41-27.184c1.922-0.591,3.233-2.366,3.233-4.376v-89.178c-8.445-1.145-15.799,0.845-26.68-7.301&#10;&#9;&#9;C61.765,325.359,70.155,314.151,53.534,301.709z"/>
	
		<line style="fill:none;stroke:#000000;stroke-width:15;stroke-linecap:round;stroke-linejoin:round;stroke-miterlimit:10;" x1="35.048" y1="62.86" x2="70.057" y2="50.97"/>
	
		<line style="fill:none;stroke:#000000;stroke-width:15;stroke-linecap:round;stroke-linejoin:round;stroke-miterlimit:10;" x1="35.048" y1="105.796" x2="70.057" y2="93.906"/>
	
		<line style="fill:none;stroke:#000000;stroke-width:15;stroke-linecap:round;stroke-linejoin:round;stroke-miterlimit:10;" x1="481.381" y1="462.493" x2="481.381" y2="504.5"/>
	
		<line style="fill:none;stroke:#000000;stroke-width:15;stroke-linecap:round;stroke-linejoin:round;stroke-miterlimit:10;" x1="430.053" y1="504.5" x2="430.053" y2="447.301"/>
	<path style="fill:none;stroke:#000000;stroke-width:15;stroke-linecap:round;stroke-linejoin:round;stroke-miterlimit:10;" d="&#10;&#9;&#9;M458.466,301.709c16.62-12.442,25.01-1.235,41.631-13.677c1.722-1.289,3.163-2.564,4.403-3.829v177.26&#10;&#9;&#9;c0,3.08-2.98,5.281-5.924,4.376l-88.41-27.184c-1.922-0.591-3.233-2.366-3.233-4.376v-89.178c8.445-1.145,15.799,0.845,26.68-7.301&#10;&#9;&#9;C450.235,325.359,441.845,314.151,458.466,301.709z"/>
	
		<line style="fill:none;stroke:#000000;stroke-width:15;stroke-linecap:round;stroke-linejoin:round;stroke-miterlimit:10;" x1="476.952" y1="62.86" x2="441.943" y2="50.97"/>
	
		<line style="fill:none;stroke:#000000;stroke-width:15;stroke-linecap:round;stroke-linejoin:round;stroke-miterlimit:10;" x1="476.952" y1="105.796" x2="441.943" y2="93.906"/>
	<path style="fill:none;stroke:#000000;stroke-width:15;stroke-linecap:round;stroke-linejoin:round;stroke-miterlimit:10;" d="&#10;&#9;&#9;M7.5,240.323v221.141c0,3.08,2.98,5.281,5.924,4.376l88.41-27.184c1.922-0.591,3.233-2.366,3.233-4.376V13.698&#10;&#9;&#9;c0-3.08-2.98-5.281-5.924-4.376l-88.41,27.184C8.811,37.097,7.5,38.872,7.5,40.882v170.441"/>
	<path style="fill:none;stroke:#000000;stroke-width:15;stroke-linecap:round;stroke-linejoin:round;stroke-miterlimit:10;" d="&#10;&#9;&#9;M447.091,19.848L412.858,9.322c-2.944-0.905-5.924,1.296-5.924,4.376V434.28c0,2.01,1.311,3.785,3.233,4.376l88.41,27.184&#10;&#9;&#9;c2.944,0.905,5.924-1.296,5.924-4.376V40.882c0-2.01-1.311-3.785-3.233-4.376l-25.177-7.741"/>
</g>















</svg>
