<?xml version="1.0" encoding="UTF-8" standalone="no"?>
<!-- Created with Inkscape (http://www.inkscape.org/) -->

<svg
   version="1.1"
   id="svg1023"
   xml:space="preserve"
   width="682.66669"
   height="682.66669"
   viewBox="0 0 682.66669 682.66669"
   xmlns="http://www.w3.org/2000/svg"
   xmlns:svg="http://www.w3.org/2000/svg"><defs
     id="defs1027"><clipPath
       clipPathUnits="userSpaceOnUse"
       id="clipPath1037"><path
         d="M 0,512 H 512 V 0 H 0 Z"
         id="path1035" /></clipPath><clipPath
       clipPathUnits="userSpaceOnUse"
       id="clipPath1073"><path
         d="M 0,512 H 512 V 0 H 0 Z"
         id="path1071" /></clipPath></defs><g
     id="g1029"
     transform="matrix(1.3333333,0,0,-1.3333333,0,682.66667)"><g
       id="g1031"><g
         id="g1033"
         clip-path="url(#clipPath1037)"><g
           id="g1039"
           transform="translate(211.2407,450.0103)"><path
             d="m 0,0 h -201.241 v -298.788 h 492 V 0 H 87.7"
             style="fill:none;stroke:#000000;stroke-width:20;stroke-linecap:round;stroke-linejoin:round;stroke-miterlimit:10;stroke-dasharray:none;stroke-opacity:1"
             id="path1041" /></g><path
           d="M 502,197.96 H 10 v -46.737 h 492 z"
           style="fill:none;stroke:#000000;stroke-width:20;stroke-linecap:round;stroke-linejoin:round;stroke-miterlimit:10;stroke-dasharray:none;stroke-opacity:1"
           id="path1043" /></g></g><g
       id="g1045"
       transform="translate(417.6504,61.9897)"><path
         d="m 0,0 -137.937,41.659 v 47.574 h -48.004 V 41.659 L -323.877,0"
         style="fill:none;stroke:#000000;stroke-width:20;stroke-linecap:round;stroke-linejoin:round;stroke-miterlimit:10;stroke-dasharray:none;stroke-opacity:1"
         id="path1047" /></g><g
       id="g1049"
       transform="translate(255.4238,450.0103)"><path
         d="M 0,0 V 0"
         style="fill:none;stroke:#000000;stroke-width:20;stroke-linecap:round;stroke-linejoin:round;stroke-miterlimit:10;stroke-dasharray:none;stroke-opacity:1"
         id="path1051" /></g><path
       d="m 231.709,103.648 h 48.004 v 47.574 h -48.004 z"
       style="fill:none;stroke:#000000;stroke-width:20;stroke-linecap:round;stroke-linejoin:round;stroke-miterlimit:10;stroke-dasharray:none;stroke-opacity:1"
       id="path1053" /><g
       id="g1055"
       transform="translate(255.7119,103.6484)"><path
         d="M 0,0 V -41.659"
         style="fill:none;stroke:#000000;stroke-width:20;stroke-linecap:round;stroke-linejoin:round;stroke-miterlimit:10;stroke-dasharray:none;stroke-opacity:1"
         id="path1057" /></g><g
       id="g1059"
       transform="translate(277.8447,373.1714)"><path
         d="M 0,0 V -113.993"
         style="fill:none;stroke:#000000;stroke-width:20;stroke-linecap:round;stroke-linejoin:round;stroke-miterlimit:10;stroke-dasharray:none;stroke-opacity:1"
         id="path1061" /></g><g
       id="g1063"
       transform="translate(339.165,371.7334)"><path
         d="M 0,0 -57.672,-53.011 4.047,-112.555"
         style="fill:none;stroke:#000000;stroke-width:20;stroke-linecap:round;stroke-linejoin:round;stroke-miterlimit:10;stroke-dasharray:none;stroke-opacity:1"
         id="path1065" /></g><g
       id="g1067"><g
         id="g1069"
         clip-path="url(#clipPath1073)"><g
           id="g1075"
           transform="translate(243.7402,294.4058)"><path
             d="m 0,0 h -74.952 c 0,0 38.769,67.224 44.016,76.164 6.099,10.389 15.707,6.885 15.707,-0.307 0,-7.93 -0.299,-111.084 -0.299,-111.084"
             style="fill:none;stroke:#000000;stroke-width:20;stroke-linecap:round;stroke-linejoin:round;stroke-miterlimit:10;stroke-dasharray:none;stroke-opacity:1"
             id="path1077" /></g></g></g></g></svg>
