<svg height="512" viewBox="0 0 64 64" width="512" xmlns="http://www.w3.org/2000/svg"><g id="Layer_97" data-name="Layer 97"><path d="m32 25.64a5.12 5.12 0 0 1 .56 0l.36-3a7 7 0 0 0 -.92-.05 9.37 9.37 0 0 0 -9.36 9.41 7.15 7.15 0 0 0 .05.93l3-.38a4.93 4.93 0 0 1 0-.55 6.36 6.36 0 0 1 6.31-6.36z"/><path d="m15.43 41.19a55.14 55.14 0 0 1 -9.52-9.19c2.78-3.42 13.56-15.57 26.09-15.57a22.51 22.51 0 0 1 7.87 1.51l1.05-2.81a25.42 25.42 0 0 0 -8.92-1.7c-16 0-28.68 17-29.21 17.68l-.65.89.65.89a57.24 57.24 0 0 0 10.84 10.7z"/><path d="m61.21 31.11a57.24 57.24 0 0 0 -10.84-10.7c-.9-.67-1.83-1.29-2.77-1.89l5.46-5.46-2.12-2.12-40 40 2.12 2.12 6-6a35.62 35.62 0 0 0 4 1.83 25.63 25.63 0 0 0 8.94 1.68c16 0 28.68-17 29.21-17.68l.65-.89zm-22.88.34a4.93 4.93 0 0 1 0 .55 6.36 6.36 0 0 1 -6.33 6.36h-.6a6.47 6.47 0 0 1 -2.7-.91l8.72-8.71a6.45 6.45 0 0 1 .91 2.71zm-6.33 16.12a22.63 22.63 0 0 1 -7.86-1.5c-.94-.36-1.89-.78-2.84-1.25l5.23-5.23a9.23 9.23 0 0 0 4.55 1.72 7 7 0 0 0 .92 0 9.37 9.37 0 0 0 9.36-9.31 5.75 5.75 0 0 0 0-.87 9.3 9.3 0 0 0 -1.72-4.6l5.83-5.83c1.07.66 2.13 1.35 3.15 2.11a55.14 55.14 0 0 1 9.47 9.19c-2.78 3.42-13.56 15.57-26.09 15.57z"/></g></svg>