<?xml version="1.0"?>
<svg xmlns="http://www.w3.org/2000/svg" viewBox="0 0 64 64" width="512" height="512"><g id="_13-rain" data-name="13-rain"><path d="M55.866,12.955A9.38,9.38,0,0,0,44.524,5.233,16.462,16.462,0,0,0,18.358,8.018C18.239,8.015,18.122,8,18,8A11.064,11.064,0,0,0,7.266,16.664,11,11,0,0,0,11,38H51a13,13,0,0,0,4.865-25.048ZM51,36H11A9,9,0,0,1,7,18.942c0,.02,0,.04,0,.06a10.87,10.87,0,0,0,2.2,6.6A1,1,0,1,0,10.8,24.4,8.883,8.883,0,0,1,9,19a8.119,8.119,0,0,1,.118-1.424,9.058,9.058,0,0,1,9.7-7.539,8.962,8.962,0,0,1,5.6,2.662,1,1,0,0,0,1.432-1.4,10.961,10.961,0,0,0-5.31-3A14.479,14.479,0,0,1,42.421,5.936a9.506,9.506,0,0,0-4.58,4.652,1,1,0,1,0,1.82.829,7.5,7.5,0,0,1,14.305,2.361A6.5,6.5,0,0,1,54,14.5a7.462,7.462,0,0,1-3.53,6.362,1,1,0,0,0,1.06,1.7,9.435,9.435,0,0,0,4.427-7.374A11,11,0,0,1,51,36Z"/><path d="M58.2,27.026a1.008,1.008,0,0,0-1.181.775c-.036.171-.949,4.2-6.02,4.2H47a1,1,0,1,0,0,2h4c5.394,0,7.579-3.8,7.98-5.8A1,1,0,0,0,58.2,27.026Z"/><path d="M43,32H39a1,1,0,1,0,0,2h4a1,1,0,0,0,0-2Z"/><path d="M41,25a1,1,0,0,0,1-1,10,10,0,0,0-20,0,1,1,0,0,0,2,0,8,8,0,0,1,16,0A1,1,0,0,0,41,25Z"/><path d="M19.368,47.682l-3.5-6.172a1.04,1.04,0,0,0-1.74,0l-3.5,6.172a4.854,4.854,0,0,0,1.251,6.247,5.037,5.037,0,0,0,6.232,0A4.858,4.858,0,0,0,19.368,47.682Zm-2.486,4.673a3.075,3.075,0,0,1-3.763,0,2.866,2.866,0,0,1-.745-3.687L15,44.031l2.626,4.637A2.866,2.866,0,0,1,16.882,52.355Z"/><path d="M49.871,41.51a1.04,1.04,0,0,0-1.74,0l-3.5,6.172a4.854,4.854,0,0,0,1.251,6.247,5.037,5.037,0,0,0,6.232,0,4.858,4.858,0,0,0,1.251-6.248Zm1.011,10.845a3.075,3.075,0,0,1-3.763,0,2.866,2.866,0,0,1-.745-3.687L49,44.031l2.626,4.637A2.866,2.866,0,0,1,50.882,52.355Z"/><path d="M24.36,52.492a1,1,0,0,0-1.719,0l-3.059,5.143a4.1,4.1,0,0,0,1.134,5.452,4.679,4.679,0,0,0,5.57,0,4.1,4.1,0,0,0,1.133-5.451Zm.728,8.993a2.7,2.7,0,0,1-3.175,0,2.133,2.133,0,0,1-.612-2.828l2.2-3.7,2.2,3.7A2.132,2.132,0,0,1,25.088,61.485Z"/><path d="M36.368,47.682l-3.5-6.172a1.04,1.04,0,0,0-1.74,0l-3.5,6.172a4.854,4.854,0,0,0,1.251,6.247,5.037,5.037,0,0,0,6.232,0A4.858,4.858,0,0,0,36.368,47.682Zm-2.486,4.673a3.075,3.075,0,0,1-3.763,0,2.866,2.866,0,0,1-.745-3.687L32,44.031l2.626,4.637A2.866,2.866,0,0,1,33.882,52.355Z"/><path d="M41.36,52.492a1,1,0,0,0-1.719,0l-3.059,5.143a4.1,4.1,0,0,0,1.134,5.452,4.679,4.679,0,0,0,5.57,0,4.1,4.1,0,0,0,1.133-5.451Zm.728,8.993a2.7,2.7,0,0,1-3.175,0,2.133,2.133,0,0,1-.612-2.828l2.2-3.7,2.2,3.7A2.132,2.132,0,0,1,42.088,61.485Z"/></g></svg>
