<?xml version="1.0" encoding="UTF-8" standalone="no"?>
<!-- Created with Inkscape (http://www.inkscape.org/) -->

<svg
   version="1.1"
   id="svg5349"
   xml:space="preserve"
   width="682.66669"
   height="682.66669"
   viewBox="0 0 682.66669 682.66669"
   xmlns="http://www.w3.org/2000/svg"
   xmlns:svg="http://www.w3.org/2000/svg"><defs
     id="defs5353"><clipPath
       clipPathUnits="userSpaceOnUse"
       id="clipPath5363"><path
         d="M 0,512 H 512 V 0 H 0 Z"
         id="path5361" /></clipPath></defs><g
     id="g5355"
     transform="matrix(1.3333333,0,0,-1.3333333,0,682.66667)"><g
       id="g5357"><g
         id="g5359"
         clip-path="url(#clipPath5363)"><g
           id="g5365"
           transform="translate(383.6201,458.79)"><path
             d="m 0,0 h 68.38 c 16.57,0 30,-13.43 30,-30 v -346.29"
             style="fill:none;stroke:#000000;stroke-width:15;stroke-linecap:round;stroke-linejoin:round;stroke-miterlimit:10;stroke-dasharray:none;stroke-opacity:1"
             id="path5367" /></g><g
           id="g5369"
           transform="translate(30,351.1396)"><path
             d="m 0,0 v 77.65 c 0,16.571 13.43,30 30,30 h 68.38"
             style="fill:none;stroke:#000000;stroke-width:15;stroke-linecap:round;stroke-linejoin:round;stroke-miterlimit:10;stroke-dasharray:none;stroke-opacity:1"
             id="path5371" /></g><g
           id="g5373"
           transform="translate(30,82.5)"><path
             d="M 0,0 V 192.13"
             style="fill:none;stroke:#000000;stroke-width:15;stroke-linecap:round;stroke-linejoin:round;stroke-miterlimit:10;stroke-dasharray:none;stroke-opacity:1"
             id="path5375" /></g><g
           id="g5377"
           transform="translate(452,156.8711)"><path
             d="M 0,0 V -74.371"
             style="fill:none;stroke:#000000;stroke-width:15;stroke-linecap:round;stroke-linejoin:round;stroke-miterlimit:10;stroke-dasharray:none;stroke-opacity:1"
             id="path5379" /></g><g
           id="g5381"
           transform="translate(383.6201,428.79)"><path
             d="m 0,0 h 61.38 c 3.87,0 7,-3.13 7,-7 v -229.919"
             style="fill:none;stroke:#000000;stroke-width:15;stroke-linecap:round;stroke-linejoin:round;stroke-miterlimit:10;stroke-dasharray:none;stroke-opacity:1"
             id="path5383" /></g><g
           id="g5385"
           transform="translate(60,351.1396)"><path
             d="m 0,0 v 70.65 c 0,3.871 3.13,7 7,7 h 61.38"
             style="fill:none;stroke:#000000;stroke-width:15;stroke-linecap:round;stroke-linejoin:round;stroke-miterlimit:10;stroke-dasharray:none;stroke-opacity:1"
             id="path5387" /></g><g
           id="g5389"
           transform="translate(60,82.5)"><path
             d="M 0,0 V 192.13"
             style="fill:none;stroke:#000000;stroke-width:15;stroke-linecap:round;stroke-linejoin:round;stroke-miterlimit:10;stroke-dasharray:none;stroke-opacity:1"
             id="path5391" /></g><g
           id="g5393"
           transform="translate(231.9902,170.04)"><path
             d="m 0,0 v -11.54 c 0,-7.62 -5.34,-14.21 -12.8,-15.79 l -35.06,-7.42 c -22.39,-4.74 -38.41,-24.5 -38.41,-47.39 v -5.4"
             style="fill:none;stroke:#000000;stroke-width:15;stroke-linecap:round;stroke-linejoin:round;stroke-miterlimit:10;stroke-dasharray:none;stroke-opacity:1"
             id="path5395" /></g><g
           id="g5397"
           transform="translate(280.0098,170.04)"><path
             d="m 0,0 v -11.54 c 0,-7.62 5.34,-14.21 12.8,-15.79 l 35.06,-7.42 c 22.39,-4.74 38.41,-24.5 38.41,-47.39 v -5.4"
             style="fill:none;stroke:#000000;stroke-width:15;stroke-linecap:round;stroke-linejoin:round;stroke-miterlimit:10;stroke-dasharray:none;stroke-opacity:1"
             id="path5399" /></g><g
           id="g5401"
           transform="translate(213.4292,141.4893)"><path
             d="m 0,0 c 9.125,-13.808 24.78,-22.923 42.571,-22.923 17.79,0 33.445,9.115 42.571,22.923"
             style="fill:none;stroke:#000000;stroke-width:15;stroke-linecap:round;stroke-linejoin:round;stroke-miterlimit:10;stroke-dasharray:none;stroke-opacity:1"
             id="path5403" /></g><g
           id="g5405"
           transform="translate(194.6572,244.7881)"><path
             d="m 0,0 v 73.906 c 0,13.376 10.843,24.22 24.219,24.22 h 74.246 c 13.376,0 24.219,-10.844 24.219,-24.22 V 0"
             style="fill:none;stroke:#000000;stroke-width:15;stroke-linecap:round;stroke-linejoin:round;stroke-miterlimit:10;stroke-dasharray:none;stroke-opacity:1"
             id="path5407" /></g><g
           id="g5409"
           transform="translate(317.3413,266.0957)"><path
             d="m 0,0 c -5.25,1.514 -13.887,4.728 -22.602,11.776 -7.648,6.186 -12.456,12.98 -15.339,17.983 -0.876,1.519 -2.913,1.864 -4.231,0.71 C -47.975,25.384 -55.262,19.952 -64.173,15.088 -87.472,2.371 -109.703,0.179 -122.684,0 v -39.309 c 0,-34.049 27.464,-61.653 61.342,-61.653 v 0 c 33.878,0 61.342,27.604 61.342,61.653 z"
             style="fill:none;stroke:#000000;stroke-width:15;stroke-linecap:round;stroke-linejoin:round;stroke-miterlimit:10;stroke-dasharray:none;stroke-opacity:1"
             id="path5411" /></g><g
           id="g5413"
           transform="translate(226.4028,248.1748)"><path
             d="M 0,0 V -11.898"
             style="fill:none;stroke:#000000;stroke-width:15;stroke-linecap:round;stroke-linejoin:round;stroke-miterlimit:10;stroke-dasharray:none;stroke-opacity:1"
             id="path5415" /></g><g
           id="g5417"
           transform="translate(285.5952,248.1748)"><path
             d="M 0,0 V -11.898"
             style="fill:none;stroke:#000000;stroke-width:15;stroke-linecap:round;stroke-linejoin:round;stroke-miterlimit:10;stroke-dasharray:none;stroke-opacity:1"
             id="path5419" /></g><g
           id="g5421"
           transform="translate(244.1606,195.3896)"><path
             d="M 0,0 C 1.937,-1.068 6.045,-2.993 11.581,-3.052 17.409,-3.112 21.732,-1.072 23.677,0"
             style="fill:none;stroke:#000000;stroke-width:15;stroke-linecap:round;stroke-linejoin:round;stroke-miterlimit:10;stroke-dasharray:none;stroke-opacity:1"
             id="path5423" /></g><g
           id="g5425"
           transform="translate(324.8394,236.9922)"><path
             d="M 0,0 H -7.498 V 29.104 H 0 c 8.016,0 14.515,-6.5 14.515,-14.516 V 14.515 C 14.515,6.498 8.016,0 0,0 Z"
             style="fill:none;stroke:#000000;stroke-width:15;stroke-linecap:round;stroke-linejoin:round;stroke-miterlimit:10;stroke-dasharray:none;stroke-opacity:1"
             id="path5427" /></g><g
           id="g5429"
           transform="translate(187.1592,236.9922)"><path
             d="M 0,0 H 7.498 V 29.104 H 0 c -8.016,0 -14.515,-6.5 -14.515,-14.516 V 14.515 C -14.515,6.498 -8.016,0 0,0 Z"
             style="fill:none;stroke:#000000;stroke-width:15;stroke-linecap:round;stroke-linejoin:round;stroke-miterlimit:10;stroke-dasharray:none;stroke-opacity:1"
             id="path5431" /></g><g
           id="g5433"
           transform="translate(299.9927,72.5)"><path
             d="m 0,0 v -13.579 c 0,-5.523 -4.477,-10 -10,-10 h -67.985 c -5.523,0 -10,4.477 -10,10 V 0 c 0,5.522 -4.477,10 -10,10 h -184.508 c -5.523,0 -10,-4.478 -10,-10 v -35 c 0,-16.568 13.432,-30 30,-30 h 437 c 16.569,0 30,13.432 30,30 V 0 c 0,5.522 -4.477,10 -10,10 H 10 C 4.477,10 0,5.522 0,0 Z"
             style="fill:none;stroke:#000000;stroke-width:15;stroke-linecap:round;stroke-linejoin:round;stroke-miterlimit:10;stroke-dasharray:none;stroke-opacity:1"
             id="path5435" /></g><g
           id="g5437"
           transform="translate(194.5918,376.7119)"><path
             d="m 0,0 h -34.318 c -17.613,0 -31.89,14.278 -31.89,31.891 v 64.007 c 0,17.613 14.277,31.89 31.89,31.89 h 191.452 c 17.613,0 31.89,-14.277 31.89,-31.89 V 31.891 C 189.024,14.278 174.747,0 157.134,0 H 35"
             style="fill:none;stroke:#000000;stroke-width:15;stroke-linecap:round;stroke-linejoin:round;stroke-miterlimit:10;stroke-dasharray:none;stroke-opacity:1"
             id="path5439" /></g><g
           id="g5441"
           transform="translate(159.8281,474.9268)"><path
             d="m 0,0 v -68.584 c 0.758,-0.13 24.036,0 24.036,0"
             style="fill:none;stroke:#000000;stroke-width:15;stroke-linecap:round;stroke-linejoin:round;stroke-miterlimit:10;stroke-dasharray:none;stroke-opacity:1"
             id="path5443" /></g><g
           id="g5445"
           transform="translate(214.1445,474.9268)"><path
             d="M 0,0 V -68.642"
             style="fill:none;stroke:#000000;stroke-width:15;stroke-linecap:round;stroke-linejoin:round;stroke-miterlimit:10;stroke-dasharray:none;stroke-opacity:1"
             id="path5447" /></g><g
           id="g5449"
           transform="translate(352.1719,474.3008)"><path
             d="M 0,0 H -28.659 V -68.016 H 0"
             style="fill:none;stroke:#000000;stroke-width:15;stroke-linecap:round;stroke-linejoin:round;stroke-miterlimit:10;stroke-dasharray:none;stroke-opacity:1"
             id="path5451" /></g><g
           id="g5453"
           transform="translate(350.0591,440.293)"><path
             d="M 0,0 H -26.546"
             style="fill:none;stroke:#000000;stroke-width:15;stroke-linecap:round;stroke-linejoin:round;stroke-miterlimit:10;stroke-dasharray:none;stroke-opacity:1"
             id="path5455" /></g><g
           id="g5457"
           transform="translate(244.4248,474.9268)"><path
             d="m 0,0 23.469,-67.611 c 0.491,-1.384 2.454,-1.37 2.927,0.02 l 22.412,67.465"
             style="fill:none;stroke:#000000;stroke-width:15;stroke-linecap:round;stroke-linejoin:round;stroke-miterlimit:10;stroke-dasharray:none;stroke-opacity:1"
             id="path5459" /></g><g
           id="g5461"
           transform="translate(14.5,274.627)"><path
             d="m 0,0 h 80.755 c 1.856,0 3.637,-0.737 4.95,-2.05 l 21.121,-21.122 c 2.52,-2.519 6.828,-0.734 6.828,2.829 V -7 c 0,3.866 3.134,7 7,7 h 16.692 c 3.866,0 7,3.134 7,7 v 62.514 c 0,3.866 -3.134,7 -7,7 L 0,76.514 c -3.866,0 -7,-3.134 -7,-7 V 7 C -7,3.134 -3.866,0 0,0 Z"
             style="fill:none;stroke:#000000;stroke-width:15;stroke-linecap:round;stroke-linejoin:round;stroke-miterlimit:10;stroke-dasharray:none;stroke-opacity:1"
             id="path5463" /></g><g
           id="g5465"
           transform="translate(119.3984,312.8838)"><path
             d="M 0,0 H -72.451"
             style="fill:none;stroke:#000000;stroke-width:15;stroke-linecap:round;stroke-linejoin:round;stroke-miterlimit:10;stroke-dasharray:none;stroke-opacity:1"
             id="path5467" /></g></g></g></g></svg>
