<?xml version="1.0" encoding="UTF-8"?>
<svg xmlns="http://www.w3.org/2000/svg" width="100%" viewBox="0 0 826.82 159.77">
  <path d="M275.03 50.64c-9.62-8.9-22.83-13.76-37.58-13.76-34.04 0-60.7 26.99-60.7 61.45s26.77 61.21 60.96 61.21c14.84 0 27.96-4.75 37.33-13.45v11.08h27.15V39.48h-27.15v11.16zm-36.47 83.29c-21.09 0-35.81-14.74-35.81-35.84s14.62-35.6 35.56-35.6 35.31 14.4 35.31 35.84-14.42 35.61-35.06 35.61zM82.75 103.5L19.91.23H0V157.4h27.74V67.65l42.38 68.73h24.13l43.28-68.88v89.9h27.74V.23h-19.91L82.75 103.5zM378.7 37.11c-12.71 0-24.21 4.45-32.76 12.6V39.48h-26.79V157.4h26.79V89.09c0-15.42 11.19-26.61 26.61-26.61s26.14 10.94 26.14 26.61v68.31h26.79V84.83c0-26.31-20.98-47.72-46.77-47.72zm254.2 0c-34.46 0-61.45 26.78-61.45 60.97s26.99 61.68 61.45 61.68 61.45-27.09 61.45-61.68-26.99-60.97-61.45-60.97zm0 96.58c-19.67 0-33.95-14.97-33.95-35.6s14.28-34.9 33.95-34.9 33.95 14.68 33.95 34.9-14.28 35.6-33.95 35.6zm-98.75-83.05c-9.62-8.9-22.83-13.76-37.58-13.76-34.04 0-60.7 26.99-60.7 61.45s26.77 61.21 60.96 61.21c14.84 0 27.96-4.75 37.33-13.45v11.08h27.15V0h-27.15v50.64zm-36.47 83.29c-21.09 0-35.81-14.74-35.81-35.84s14.62-35.6 35.56-35.6 35.31 14.4 35.31 35.84-14.42 35.61-35.06 35.61zm328.39-26.22a65.18 65.18 0 0 0 .75-9.86c0-34.12-26.94-60.85-61.34-60.85s-61.33 26.73-61.33 60.85 26.94 61.58 61.33 61.58c25.97 0 47.69-15.42 56.77-37.83h-28.1c-6.43 8.7-16.59 14.01-28.67 14.01-17.6 0-28.88-11.27-32.71-27.89h93.3zm-60.46-44.52c17.09 0 28.07 8.05 32.33 23.59h-64.66c4.26-15.54 15.24-23.59 32.33-23.59z"></path>
</svg>
