<svg id="_x3C_Layer_x3E_" height="512" viewBox="0 0 32 32" width="512" xmlns="http://www.w3.org/2000/svg"><g id="Account_x2C__mobile_x2C__profile_x2C__setting_x2C__ui_development_x2C__UX_x2C__UI_1_"><g id="XMLID_1282_"><g id="XMLID_1678_"><g><g><path d="m16.5 4h-3c-.276 0-.5-.224-.5-.5s.224-.5.5-.5h3c.276 0 .5.224.5.5s-.224.5-.5.5z" fill="rgb(0,0,0)"/></g></g></g><g id="XMLID_1677_"><g><g><path d="m20.5 31h-11c-1.379 0-2.5-1.122-2.5-2.5v-7c0-.276.224-.5.5-.5s.5.224.5.5v7c0 .827.673 1.5 1.5 1.5h11c.827 0 1.5-.673 1.5-1.5v-17c0-.276.224-.5.5-.5s.5.224.5.5v17c0 1.378-1.121 2.5-2.5 2.5z" fill="rgb(0,0,0)"/></g></g></g><g id="XMLID_1676_"><g><g><path d="m22.5 5c-.276 0-.5-.224-.5-.5v-1c0-.827-.673-1.5-1.5-1.5h-11c-.827 0-1.5.673-1.5 1.5v1c0 .276-.224.5-.5.5s-.5-.224-.5-.5v-1c0-1.378 1.121-2.5 2.5-2.5h11c1.379 0 2.5 1.122 2.5 2.5v1c0 .276-.224.5-.5.5z" fill="rgb(0,0,0)"/></g></g></g><g id="XMLID_1669_"><g><g><path d="m14.5 25h-4c-.276 0-.5-.224-.5-.5s.224-.5.5-.5h4c.276 0 .5.224.5.5s-.224.5-.5.5z" fill="rgb(0,0,0)"/></g></g></g><g id="XMLID_1294_"><g><g><path d="m17.5 27h-7c-.276 0-.5-.224-.5-.5s.224-.5.5-.5h7c.276 0 .5.224.5.5s-.224.5-.5.5z" fill="rgb(0,0,0)"/></g></g></g><g id="XMLID_1663_"><g><g><path d="m19.5 23h-9c-.276 0-.5-.224-.5-.5s.224-.5.5-.5h9c.276 0 .5.224.5.5s-.224.5-.5.5z" fill="rgb(0,0,0)"/></g></g></g><g id="XMLID_1647_"><g><g><path d="m9 14c-1.379 0-2.5-1.122-2.5-2.5s1.121-2.5 2.5-2.5 2.5 1.122 2.5 2.5-1.121 2.5-2.5 2.5zm0-4c-.827 0-1.5.673-1.5 1.5s.673 1.5 1.5 1.5 1.5-.673 1.5-1.5-.673-1.5-1.5-1.5z" fill="rgb(0,0,0)"/></g></g></g><g id="XMLID_1646_"><g><g><path d="m9 20c-1.754 0-3.437-.662-4.739-1.862-.134-.124-.19-.311-.146-.487.384-1.561 1.776-2.651 3.385-2.651h3c1.609 0 3.001 1.09 3.386 2.65.044.177-.013.364-.146.487-1.303 1.201-2.986 1.863-4.74 1.863zm-3.827-2.393c2.162 1.801 5.492 1.801 7.654 0-.36-.959-1.279-1.607-2.327-1.607h-3c-1.048 0-1.967.648-2.327 1.607z" fill="rgb(0,0,0)"/></g></g></g><g id="XMLID_1645_"><g><g><path d="m9 20c-3.859 0-7-3.14-7-7s3.141-7 7-7 7 3.14 7 7-3.141 7-7 7zm0-13c-3.309 0-6 2.691-6 6s2.691 6 6 6 6-2.691 6-6-2.691-6-6-6z" fill="rgb(0,0,0)"/></g></g></g><g id="XMLID_1575_"><g id="XMLID_1641_"><g><g><path d="m4.5 22.95c-.276 0-.5-.174-.5-.45v-.1c0-.276.224-.5.5-.5s.5.224.5.5-.224.55-.5.55z" fill="rgb(0,0,0)"/></g></g></g><g id="XMLID_1597_"><g><g><path d="m4.5 24.95c-.276 0-.5-.174-.5-.45v-.1c0-.276.224-.5.5-.5s.5.224.5.5-.224.55-.5.55z" fill="rgb(0,0,0)"/></g></g></g><g id="XMLID_1578_"><g><g><path d="m4.5 26.95c-.276 0-.5-.174-.5-.45v-.1c0-.276.224-.5.5-.5s.5.224.5.5-.224.55-.5.55z" fill="rgb(0,0,0)"/></g></g></g></g><g id="XMLID_1295_"><g><g><path d="m24.34 27h-.84c-.276 0-.5-.224-.5-.5s.224-.5.5-.5h.437l.245-1.135c.04-.188.185-.335.371-.38.472-.114.932-.306 1.367-.571.161-.1.368-.097.529.005l.99.633.613-.618-.633-.982c-.104-.161-.106-.368-.007-.531.265-.435.457-.895.57-1.367.045-.186.191-.33.378-.372l1.139-.253v-.857l-1.139-.253c-.187-.042-.333-.186-.378-.372-.113-.472-.306-.932-.57-1.367-.1-.163-.098-.369.006-.53l.634-.991-.612-.612-.991.634c-.16.103-.367.105-.529.005-.436-.265-.896-.457-1.367-.571-.187-.045-.331-.193-.371-.38l-.245-1.135h-.437c-.276 0-.5-.224-.5-.5s.224-.5.5-.5h.84c.235 0 .439.165.488.395l.267 1.233c.366.111.725.261 1.071.448l1.074-.687c.198-.125.457-.099.623.068l1.181 1.18c.166.166.194.425.067.623l-.687 1.074c.187.347.337.706.448 1.073l1.235.274c.229.051.392.254.392.488v1.66c0 .234-.163.438-.392.488l-1.235.274c-.111.367-.261.726-.448 1.072l.686 1.064c.128.197.101.457-.065.623l-1.181 1.19c-.166.167-.425.196-.624.069l-1.074-.687c-.347.187-.705.337-1.071.448l-.267 1.233c-.049.232-.253.397-.488.397z" fill="rgb(0,0,0)"/></g></g></g><g id="XMLID_1874_"><g><g><path d="m24.553 22.768c-.188 0-.368-.107-.453-.289-.116-.25-.008-.548.242-.664.703-.328 1.158-1.04 1.158-1.815 0-1.103-.897-2-2-2-.271 0-.532.053-.777.157-.253.109-.547-.01-.655-.265-.108-.254.011-.547.265-.655.368-.157.762-.237 1.167-.237 1.654 0 3 1.346 3 3 0 1.163-.682 2.231-1.736 2.721-.069.032-.14.047-.211.047z" fill="rgb(0,0,0)"/></g></g></g><g id="XMLID_1894_"><g><g><path d="m26 10h-6c-1.103 0-2-.897-2-2s.897-2 2-2h6c1.103 0 2 .897 2 2s-.897 2-2 2zm-6-3c-.552 0-1 .449-1 1s.448 1 1 1h6c.552 0 1-.449 1-1s-.448-1-1-1z" fill="rgb(0,0,0)"/></g></g></g></g></g></svg>