<svg id="Capa_1" enable-background="new 0 0 511 511" height="512" viewBox="0 0 511 511" width="512" xmlns="http://www.w3.org/2000/svg"><g id="Outline_00000012435979933103482320000000776837503866765729_"><path d="m405.5 421c15.163 0 27.5-12.336 27.5-27.5v-366c0-15.164-12.337-27.5-27.5-27.5h-300c-15.163 0-27.5 12.336-27.5 27.5v366c0 15.164 12.337 27.5 27.5 27.5h47.5v45h-47.5c-15.163 0-27.5 12.336-27.5 27.5v17.5h355v-17.5c0-15.164-12.337-27.5-27.5-27.5h-47.5v-45zm0 60c6.893 0 12.5 5.607 12.5 12.5v2.5h-325v-2.5c0-6.893 5.607-12.5 12.5-12.5zm-237.5-15v-45h175v45zm-62.5-60c-6.893 0-12.5-5.607-12.5-12.5v-366c0-6.893 5.607-12.5 12.5-12.5h300c6.893 0 12.5 5.607 12.5 12.5v366c0 6.893-5.607 12.5-12.5 12.5z"/><path d="m108 391h295v-361h-295zm15-346h265v331h-265z"/><path d="m193.808 245.75 18.75 32.476c3.005 5.205 7.856 8.928 13.662 10.484 1.938.519 3.905.776 5.859.776 3.898 0 7.747-1.023 11.214-3.024 5.205-3.005 8.928-7.857 10.483-13.662s.757-11.869-2.248-17.073l-17.317-29.995 108.259-28.492-69.82-120.932-86.469 87.242-48.927 28.248 37.5 64.952zm44.73 17.476c1.002 1.735 1.268 3.756.75 5.69-.519 1.935-1.76 3.552-3.495 4.554-1.734 1.001-3.755 1.268-5.691.749-1.935-.518-3.552-1.759-4.554-3.494l-18.75-32.476 12.99-7.5zm30.941-162.41 50.181 86.916-95.227 25.062-24.271-42.039zm-81.422 78.972 22.5 38.971-30.312 17.5-22.5-38.971z"/><path d="m225.5 313h15v15h-15z"/><path d="m155.5 313h55v15h-55z"/><path d="m255.5 313h100v15h-100z"/><path d="m185.5 343h80v15h-80z"/><path d="m310.5 343h15v15h-15z"/><path d="m280.5 343h15v15h-15z"/><path d="m328.499 108.524h30v15h-30z" transform="matrix(.866 -.5 .5 .866 -11.992 187.296)"/><path d="m297.581 74.991h30v15h-30z" transform="matrix(.5 -.866 .866 .5 84.851 311.947)"/><path d="m342.081 152.066h30v15h-30z"/></g></svg>