<svg id="Capa_1" enable-background="new 0 0 512 512" height="512" viewBox="0 0 512 512" width="512" xmlns="http://www.w3.org/2000/svg"><g><path d="m148.37 134.461-47.381-36.812c-4.361-3.388-10.644-2.6-14.032 1.762-3.389 4.361-2.6 10.644 1.761 14.032l47.381 36.812c1.824 1.417 3.984 2.104 6.129 2.104 2.982 0 5.933-1.328 7.904-3.865 3.388-4.362 2.6-10.645-1.762-14.033z"/><path d="m172.912 102.874-47.381-36.812c-4.362-3.39-10.645-2.6-14.032 1.761-3.389 4.361-2.6 10.644 1.761 14.032l47.381 36.812c1.824 1.417 3.984 2.104 6.129 2.104 2.982 0 5.933-1.328 7.903-3.865 3.389-4.361 2.6-10.644-1.761-14.032z"/><path d="m440.122 79.829c-46.499-47.289-108.818-73.855-175.476-74.803-22.02-.311-43.897 2.231-65.043 7.547-12.74-7.233-29.239-4.214-38.487 7.689l-6.876 8.85c-26.45-13.282-59.534-6.502-78.365 17.736l-39.702 51.098-9.477-7.363c-4.362-3.39-10.644-2.6-14.033 1.761s-2.6 10.644 1.762 14.032l18.163 14.111-27.2 35.01c-8.683 11.176-6.655 27.333 4.522 36.016l6.844 5.317c4.672 3.63 10.216 5.389 15.72 5.389 7.66 0 15.243-3.406 20.297-9.909l27.2-35.009 15.794 12.271-27.2 35.009c-4.207 5.414-6.053 12.142-5.199 18.944.854 6.803 4.306 12.866 9.719 17.071l6.844 5.317c4.673 3.631 10.215 5.389 15.72 5.389 7.659 0 15.244-3.406 20.297-9.909l27.2-35.009 18.163 14.111c1.824 1.417 3.984 2.104 6.129 2.104 2.982 0 5.933-1.328 7.904-3.865 3.388-4.361 2.6-10.644-1.762-14.032l-9.476-7.362 39.702-51.099c18.831-24.238 17.224-57.97-2.184-80.316l6.877-8.851c4.917-6.328 7.075-14.191 6.077-22.142-.217-1.725-.585-3.407-1.08-5.037 16.639-3.474 33.712-5.113 50.866-4.87 127.919 1.819 227.908 103.495 227.637 231.475-.269 127.098-103.897 230.5-231.004 230.5-57.337 0-165.773-29.771-165.773-142.443 0-54.061 41.176-81.371 125.772-83.33v82.503c0 3.561 1.83 6.78 4.9 8.601 1.54.91 3.31 1.399 5.1 1.399 1.66 0 3.32-.42 4.79-1.22l56.661-30.91c4.84-2.64 6.63-8.729 3.989-13.569-1.75-3.211-5.12-5.211-8.779-5.211-1.66 0-3.32.421-4.78 1.221l-41.881 22.84v-151.76l139.124 75.879-18.231 9.939c-2.35 1.28-4.06 3.4-4.81 5.96-.75 2.561-.46 5.271.819 7.61 1.75 3.22 5.12 5.22 8.78 5.22 1.66 0 3.32-.43 4.78-1.229.01 0 34.331-18.72 34.331-18.72 3.21-1.761 5.21-5.12 5.21-8.78s-2-7.03-5.21-8.78l-170.004-92.73c-3.05-1.66-6.91-1.59-9.89.18-3.07 1.83-4.9 5.04-4.9 8.6v82.932c-24.23.466-55.944 3.022-83.939 14.284-18.534 7.457-33.148 17.926-43.437 31.116-12.207 15.65-18.397 35.149-18.397 57.954 0 53.399 22.415 97.138 64.82 126.485 33.02 22.852 77.106 35.959 120.955 35.959 66.952 0 129.921-26.045 177.31-73.338 47.381-47.286 73.553-110.188 73.695-177.119.141-66.673-25.385-129.431-71.878-176.714zm-263.212-47.297c3.383-4.355 9.678-5.145 14.032-1.761 2.109 1.639 3.454 4 3.787 6.651.333 2.65-.387 5.271-2.025 7.381l-6.136 7.897-15.794-12.271zm-139.934 147.506c-1.918 2.467-5.484 2.914-7.952.998l-6.844-5.316c-2.467-1.917-2.915-5.484-.998-7.952l27.2-35.009 15.794 12.271zm63.175 49.083c-1.917 2.467-5.484 2.916-7.952.998l-6.844-5.318c-1.195-.928-1.957-2.267-2.146-3.769-.188-1.502.219-2.987 1.147-4.183l27.2-35.009 15.794 12.271zm87.86-95.152-39.702 51.098-96.342-74.851 39.702-51.098c14.644-18.85 41.892-22.269 60.743-7.629l27.972 21.733c18.851 14.646 22.272 41.897 7.627 60.747z"/><circle cx="327.163" cy="291.269" r="10"/></g></svg>