<svg id="Layer_1" height="24" viewBox="0 0 24 24" width="24" xmlns="http://www.w3.org/2000/svg" data-name="Layer 1"><path d="m18.5 4h-12a2.5 2.5 0 0 0 -2.5 2.5v11a2.5 2.5 0 0 0 2.5 2.5h12a2.5 2.5 0 0 0 2.5-2.5v-11a2.5 2.5 0 0 0 -2.5-2.5zm-13.5 13.5v-11a1.5 1.5 0 0 1 1.5-1.5h5.5v14h-5.5a1.5 1.5 0 0 1 -1.5-1.5zm15 0a1.5 1.5 0 0 1 -1.5 1.5h-5.5v-14h5.5a1.5 1.5 0 0 1 1.5 1.5zm-12-11a.5.5 0 0 1 -.5.5h-1a.5.5 0 0 1 0-1h1a.5.5 0 0 1 .5.5zm8 0a.5.5 0 0 1 -.5.5h-1a.5.5 0 0 1 0-1h1a.5.5 0 0 1 .5.5z"/></svg>