<?xml version="1.0" encoding="UTF-8"?>
<svg xmlns="http://www.w3.org/2000/svg" id="Image" viewBox="0 0 64 64" width="512" height="512"><path d="M34,57H7V18a1,1,0,0,0-2,0V58a1,1,0,0,0,1,1H34a1,1,0,0,0,0-2Z"/><path d="M6,15H18a1,1,0,0,0,1-1V3H45V26a1,1,0,0,0,2,0V2a1,1,0,0,0-1-1H18a1.075,1.075,0,0,0-.7.29c-.482.48-11.923,11.921-12,12A1,1,0,0,0,6,15ZM17,4.414V13H8.414Z"/><path d="M41.006,24A1.02,1.02,0,0,0,42,23V7a1,1,0,0,0-1-1H27a1,1,0,0,0-1,1V23a1.044,1.044,0,0,0,.994,1H41.006ZM28,8H40v9.772a7.962,7.962,0,0,0-2.467-1.936A3.957,3.957,0,0,0,38,14a4,4,0,0,0-8,0,3.957,3.957,0,0,0,.467,1.836A7.962,7.962,0,0,0,28,17.772Zm6,8a2,2,0,1,1,2-2A2,2,0,0,1,34,16Zm-2.084,1.4a3.908,3.908,0,0,0,4.168,0A6.046,6.046,0,0,1,39.907,22H28.093A6.046,6.046,0,0,1,31.916,17.4Z"/><path d="M11,24h8a1,1,0,0,0,0-2H11a1,1,0,0,0,0,2Z"/><path d="M11,20h8a1,1,0,0,0,0-2H11a1,1,0,0,0,0,2Z"/><path d="M21,35h8a1,1,0,0,0,0-2H21a1,1,0,0,0,0,2Z"/><path d="M33,28H21a1,1,0,0,0,0,2H33a1,1,0,0,0,0-2Z"/><path d="M10,34a1,1,0,0,0,1,1h5a1,1,0,0,0,1-1V29a1,1,0,0,0-1-1H11a1,1,0,0,0-1,1Zm2-4h3v3H12Z"/><path d="M29,45a1,1,0,0,0,0-2H21a1,1,0,0,0,0,2Z"/><path d="M34,39a1,1,0,0,0-1-1H21a1,1,0,0,0,0,2H33A1,1,0,0,0,34,39Z"/><path d="M10,44a1,1,0,0,0,1,1h5a1,1,0,0,0,1-1V39a1,1,0,0,0-1-1H11a1,1,0,0,0-1,1Zm2-4h3v3H12Z"/><path d="M17,54c1.856,0,2.822-2.008,3.739-2.834C20.9,52.736,21.237,54,23,54c1.073,0,1.933-.954,2.712-1.667C26.317,53.257,27.6,54,31,54a1,1,0,0,0,0-2c-3.341,0-3.628-.735-3.737-1.013A1.348,1.348,0,0,0,26,50c-1.253,0-2.4,1.86-3,2-.546-.008.259-3-2-3-1.552,0-2.4,1.721-3.322,2.609.071-1.052.244-2.324-.474-3.1A1.6,1.6,0,0,0,16,48c-2.049,0-4.078,3.488-5.1,4.005A1,1,0,0,0,11,54c1.6,0,3.321-3.047,4.743-3.9C15.8,51.158,15.069,54,17,54Z"/><path d="M57,40.343V34.816A3,3,0,0,0,59,32V30a1,1,0,0,0-1-1H38a1,1,0,0,0-1,1v2a3,3,0,0,0,2,2.816v5.527a4.968,4.968,0,0,0,1.464,3.536L42.583,46C41.314,47.526,39,48.667,39,51.65v5.534A3,3,0,0,0,37,60v2a1,1,0,0,0,1,1H58a1,1,0,0,0,1-1V60a3,3,0,0,0-2-2.816V51.65c0-2.968-2.3-4.114-3.583-5.653l2.119-2.118A4.968,4.968,0,0,0,57,40.343ZM39,31H57v1a1,1,0,0,1-1,1H40a1,1,0,0,1-1-1ZM57,61H39V60a1,1,0,0,1,1-1H56a1,1,0,0,1,1,1ZM54.122,42.465,51.3,45.29a1,1,0,0,0,0,1.414c2.1,2.361,3.7,2.989,3.7,4.946V57H41V51.65c0-1.958,1.595-2.58,3.7-4.946a1,1,0,0,0,0-1.414l-2.826-2.825A2.983,2.983,0,0,1,41,40.343V35H55v5.343A2.983,2.983,0,0,1,54.122,42.465Z"/><path d="M51.393,37H44.607a1.667,1.667,0,0,0-1.178,2.844l3.1,3.1a2.075,2.075,0,0,0,2.938,0l3.1-3.1A1.667,1.667,0,0,0,51.393,37Zm-3.338,4.53a.087.087,0,0,1-.11,0L45.414,39h5.172Z"/><path d="M47.628,51.071l-5,2A1,1,0,0,0,42,54v1a1,1,0,0,0,2,0v-.323l4-1.6,4,1.6V55a1,1,0,0,0,2,0V54a1,1,0,0,0-.628-.929l-5-2A1.007,1.007,0,0,0,47.628,51.071Z"/><circle cx="48" cy="49" r="1"/><circle cx="48" cy="46" r="1"/></svg>
