<?xml version="1.0" encoding="iso-8859-1"?>
<!-- Generator: Adobe Illustrator 19.0.0, SVG Export Plug-In . SVG Version: 6.00 Build 0)  -->
<svg version="1.1" id="Capa_1" xmlns="http://www.w3.org/2000/svg" xmlns:xlink="http://www.w3.org/1999/xlink" x="0px" y="0px"
	 viewBox="0 0 511.999 511.999" style="enable-background:new 0 0 511.999 511.999;" xml:space="preserve">
<g>
	<g>
		<path d="M256.08,100.098c-19.311,0-37.933,7.003-52.436,19.719c-4.153,3.642-4.567,9.958-0.927,14.11
			c3.64,4.151,9.957,4.566,14.109,0.927c10.855-9.518,24.795-14.758,39.253-14.758c32.86,0,59.593,26.728,59.593,59.583
			c0,13.782-4.573,26.726-13.225,37.43c-3.472,4.294-2.804,10.59,1.491,14.06c1.851,1.496,4.073,2.224,6.279,2.224
			c2.916,0,5.806-1.27,7.782-3.714c11.396-14.096,17.671-31.853,17.671-50C335.67,135.798,299.966,100.098,256.08,100.098z"/>
	</g>
</g>
<g>
	<g>
		<path d="M211.427,219.12c-9.627-10.889-14.929-24.895-14.929-39.441c0-6.57,1.059-13.016,3.147-19.159
			c1.778-5.228-1.02-10.908-6.248-12.685c-5.228-1.774-10.908,1.02-12.685,6.248c-2.795,8.22-4.212,16.831-4.212,25.596
			c0,19.431,7.083,38.141,19.947,52.688c1.976,2.235,4.728,3.376,7.494,3.376c2.354,0,4.717-0.826,6.619-2.509
			C214.696,229.577,215.084,223.257,211.427,219.12z"/>
	</g>
</g>
<g>
	<g>
		<path d="M355.623,98.433c-3.494-4.276-9.792-4.911-14.069-1.419c-4.276,3.494-4.911,9.793-1.418,14.069
			c15.755,19.288,24.432,43.649,24.432,68.596c0,28.67-11.078,55.704-31.19,76.124c-3.876,3.935-3.828,10.266,0.106,14.14
			c1.948,1.918,4.482,2.875,7.015,2.875c2.584,0,5.167-0.996,7.124-2.982c23.822-24.185,36.942-56.203,36.942-90.157
			C384.564,150.135,374.285,121.283,355.623,98.433z"/>
	</g>
</g>
<g>
	<g>
		<path d="M326.692,72.318c-20.984-13.819-45.401-21.125-70.613-21.125c-70.842,0-128.475,57.638-128.475,128.485
			c0,11.602,1.551,23.115,4.608,34.221c1.221,4.436,5.246,7.348,9.634,7.348c0.879,0,1.772-0.117,2.661-0.361
			c5.324-1.467,8.452-6.971,6.985-12.294c-2.582-9.377-3.891-19.104-3.891-28.913c0-59.821,48.662-108.488,108.477-108.488
			c21.289,0,41.903,6.165,59.613,17.829c4.613,3.038,10.813,1.761,13.85-2.852C332.58,81.556,331.304,75.357,326.692,72.318z"/>
	</g>
</g>
<g>
	<g>
		<path d="M201.547,273.475c-14.433-8.404-26.929-20.235-36.136-34.215c-3.039-4.613-9.239-5.886-13.85-2.852
			c-4.611,3.038-5.888,9.238-2.851,13.85c10.897,16.546,25.688,30.549,42.775,40.498c1.583,0.922,3.314,1.36,5.021,1.36
			c3.443,0,6.793-1.78,8.65-4.969C207.935,282.375,206.319,276.253,201.547,273.475z"/>
	</g>
</g>
<g>
	<g>
		<path d="M424.286,204.291c-5.413-1.11-10.696,2.369-11.81,7.777c-4.748,23.061-14.806,45.197-29.088,64.013
			c-3.339,4.399-2.48,10.672,1.92,14.01c1.807,1.372,3.93,2.035,6.037,2.035c3.021,0,6.005-1.363,7.972-3.955
			c16.076-21.181,27.399-46.102,32.745-72.07C433.177,210.693,429.695,205.406,424.286,204.291z"/>
	</g>
</g>
<g>
	<g>
		<path d="M380.45,49.996C346.838,17.756,302.669,0,256.08,0c-53.814,0-104.348,23.828-138.645,65.376
			c-3.516,4.258-2.914,10.562,1.346,14.076c4.258,3.515,10.561,2.915,14.076-1.346c30.485-36.929,75.399-58.109,123.223-58.109
			c85.673,0,155.747,66.988,159.531,152.504c0.237,5.366,4.662,9.558,9.981,9.557c0.149,0,0.3-0.003,0.45-0.01
			c5.517-0.244,9.791-4.914,9.547-10.432C433.54,125.331,413.959,82.137,380.45,49.996z"/>
	</g>
</g>
<g>
	<g>
		<path d="M149.51,298.279c-6.927-6.42-13.333-13.149-19.041-20.003c-21.971-26.384-34.071-61.4-34.071-98.598
			c0-25.829,6.303-51.473,18.229-74.158c2.57-4.888,0.69-10.934-4.198-13.503c-4.887-2.569-10.934-0.689-13.503,4.197
			c-13.427,25.544-20.526,54.407-20.526,83.464c0,41.865,13.744,81.426,38.701,111.396c6.255,7.512,13.258,14.87,20.815,21.873
			c1.925,1.783,4.362,2.665,6.794,2.665c2.687,0,5.366-1.076,7.336-3.203C153.801,308.36,153.561,302.034,149.51,298.279z"/>
	</g>
</g>
<g>
	<g>
		<path d="M382.047,304.927l-90.791-19.041V177.949c0-19.396-15.78-35.176-35.176-35.176c-9.381,0-18.21,3.654-24.876,10.306
			c-6.635,6.649-10.29,15.482-10.29,24.87v210.733l-40.824-40.824c-6.642-6.642-15.474-10.301-24.868-10.301
			c-9.394,0-18.226,3.659-24.875,10.308c-6.636,6.649-10.291,15.482-10.291,24.872c0,9.395,3.658,18.227,10.298,24.868
			l92.404,92.403l8.669,16.617c1.723,3.304,5.139,5.374,8.865,5.374h170.45c5.325,0,9.717-4.174,9.986-9.493l7.009-138.302
			C429.185,335.715,409.97,310.785,382.047,304.927z M407.764,363.192l-6.528,128.811H246.353l-6.575-12.604
			c-0.471-0.902-1.076-1.727-1.795-2.446l-93.489-93.489c-2.864-2.863-4.44-6.673-4.44-10.728c0-4.055,1.58-7.872,4.44-10.739
			c2.866-2.866,6.675-4.443,10.728-4.443c4.053,0,7.862,1.578,10.728,4.443l57.893,57.893c2.86,2.859,7.159,3.713,10.897,2.168
			c3.737-1.548,6.172-5.193,6.172-9.238V177.949c0-4.055,1.58-7.87,4.432-10.729c2.875-2.869,6.688-4.448,10.736-4.448
			c8.369,0,15.178,6.809,15.178,15.178v116.056c0,4.73,3.316,8.814,7.946,9.786l98.738,20.708
			C396.169,328.323,408.71,344.595,407.764,363.192z"/>
	</g>
</g>
<g>
	<g>
		<path d="M346.073,458.308h-44.227c-5.522,0-9.999,4.477-9.999,9.999c0,5.521,4.477,9.999,9.999,9.999h44.227
			c5.522,0,9.999-4.477,9.999-9.999C356.072,462.786,351.595,458.308,346.073,458.308z"/>
	</g>
</g>
<g>
	<g>
		<path d="M379.153,458.309c-12.867-0.001-12.888,19.998,0,19.998C392.02,478.307,392.041,458.309,379.153,458.309z"/>
	</g>
</g>
<g>
</g>
<g>
</g>
<g>
</g>
<g>
</g>
<g>
</g>
<g>
</g>
<g>
</g>
<g>
</g>
<g>
</g>
<g>
</g>
<g>
</g>
<g>
</g>
<g>
</g>
<g>
</g>
<g>
</g>
</svg>
