<svg id="Layer_1" enable-background="new 0 0 24 24" viewBox="0 0 24 24" xmlns="http://www.w3.org/2000/svg"><g><g><g><path d="m16.614 21.622c-.108 0-.218-.035-.31-.108-3.015-2.386-6.307-5.194-7.207-8.323-.381-1.325.387-2.712 1.712-3.094 1.325-.379 2.713.388 3.094 1.712.532 1.849 4.144 4.708 5.504 5.784.217.171.253.486.082.702-.171.217-.484.254-.702.082-2.583-2.044-5.298-4.391-5.845-6.292-.229-.795-1.063-1.254-1.857-1.027-.794.229-1.255 1.062-1.027 1.856.818 2.844 3.973 5.525 6.866 7.815.217.171.253.486.082.702-.098.126-.244.191-.392.191z"/></g><g><path d="m3.903 19.091c-.213 0-.411-.137-.477-.351-.083-.264.064-.544.328-.626.559-.175 2.319-.966 1.499-3.817-.479-1.669-.281-3.425.56-4.943.841-1.52 2.223-2.621 3.893-3.101 3.364-.958 6.925.952 7.985 4.268.249.234 1.956 1.644 3.124 2.592.214.174.247.489.073.703-.173.215-.489.248-.703.073-3.215-2.609-3.322-2.79-3.374-2.876-.021-.035-.037-.072-.049-.11-.867-2.853-3.91-4.507-6.781-3.688-1.412.405-2.582 1.337-3.294 2.622-.711 1.285-.879 2.771-.474 4.183.852 2.961-.632 4.57-2.162 5.048-.048.015-.098.023-.148.023z"/></g><g><path d="m5.5 21c-.213 0-.41-.137-.477-.351-.083-.263.064-.544.328-.626 2.072-.648 2.826-1.712 1.816-6.31-.547-2.494.781-4.874 3.089-5.538 2.383-.682 4.883.699 5.568 3.081.139.483.774 1.414 4.485 4.352.217.171.253.486.082.703-.171.216-.484.255-.702.082-4.097-3.242-4.631-4.179-4.826-4.859-.533-1.852-2.473-2.928-4.332-2.396-1.794.516-2.821 2.391-2.388 4.362 1.029 4.688.4 6.575-2.495 7.479-.048.014-.099.021-.148.021z"/></g><g><path d="m18 20c-.128 0-.256-.049-.354-.146-.183-.183-.585-.488-1.05-.841-1.791-1.359-4.789-3.633-5.577-6.375-.076-.266.077-.542.342-.619.269-.076.542.077.619.342.696 2.422 3.528 4.57 5.22 5.854.515.391.922.7 1.153.931.195.195.195.512 0 .707-.097.098-.225.147-.353.147z"/></g><g><path d="m10.5 24c-.011 0-.021 0-.032-.001-.275-.017-.485-.254-.468-.53.037-.579.304-3.469 2-3.469 1.247 0 1.998 1.02 2.495 1.695.133.18.249.342.358.452.195.195.195.512 0 .707s-.512.195-.707 0c-.138-.138-.289-.338-.457-.565-.422-.575-.947-1.289-1.689-1.289-.542 0-.937 1.497-1.001 2.531-.017.265-.237.469-.499.469z"/></g><g><path d="m7.5 23c-.211 0-.407-.134-.476-.346-.085-.263.059-.544.321-.63 1.264-.411 2.105-3.035 1.678-4.372-.084-.263.061-.544.324-.628.263-.088.544.061.628.324.531 1.661-.397 5.003-2.322 5.628-.05.016-.102.024-.153.024z"/></g><g><path d="m3.5 13c-.276 0-.5-.224-.5-.5 0-4.687 3.813-8.5 8.5-8.5 4.614 0 6.265 2.665 7.47 4.611.569.917 1.06 1.71 1.685 1.913.263.085.407.367.321.63-.084.262-.365.408-.63.321-.974-.316-1.554-1.253-2.226-2.338-1.142-1.843-2.563-4.137-6.62-4.137-4.136 0-7.5 3.364-7.5 7.5 0 .276-.224.5-.5.5z"/></g><g><path d="m4 16.5c-.184 0-.36-.101-.448-.276-.092-.185-.552-1.136-.552-1.724 0-.276.224-.5.5-.5s.5.224.5.5c0 .261.267.916.447 1.276.124.247.023.547-.224.671-.071.036-.147.053-.223.053z"/></g><g><path d="m18.5 6c-.169 0-.334-.085-.428-.241-.493-.812-3.228-2.759-7.072-2.759-3.998 0-6.138 2.043-6.573 2.759-.142.237-.45.311-.686.168s-.312-.45-.168-.686c.547-.902 2.948-3.241 7.427-3.241 4.212 0 7.241 2.11 7.927 3.241.144.236.068.543-.168.687-.081.049-.17.072-.259.072z"/></g><g><path d="m16.5 2c-.054 0-.109-.009-.163-.027-.202-.069-.394-.141-.585-.211-1.053-.392-2.048-.762-4.752-.762-2.401 0-2.942.277-3.688.66-.184.094-.379.194-.608.296-.251.114-.548 0-.661-.251-.113-.252 0-.548.251-.661.211-.095.39-.187.56-.274.84-.43 1.503-.77 4.146-.77 2.884 0 4.011.419 5.101.824.184.068.368.137.562.204.261.09.4.374.31.635-.072.207-.266.337-.473.337z"/></g></g><g><path d="m20.5 9c-.212 0-.408-.135-.476-.348-.229-.713-.942-1.879-.95-1.89-.145-.235-.071-.543.164-.688.235-.146.543-.072.688.164.032.052.785 1.28 1.05 2.11.084.263-.061.544-.324.628-.051.016-.102.024-.152.024z"/></g></g><g/><g/><g/><g/><g/><g/><g/><g/><g/><g/><g/><g/><g/><g/><g/></svg>