<svg id="Layer_1" height="512" viewBox="0 0 512 512" width="512" xmlns="http://www.w3.org/2000/svg" data-name="Layer 1"><path d="m42.667 256a213.3 213.3 0 0 1 345.445-167.466h-32.451a10.667 10.667 0 0 0 0 21.333h60.339a10.667 10.667 0 0 0 10.667-10.667v-60.341a10.667 10.667 0 0 0 -21.333 0v36.12a234.666 234.666 0 0 0 -315.266 346.953 10.666 10.666 0 0 0 15.083-15.083 211.939 211.939 0 0 1 -62.484-150.849z"/><path d="m162.771 447.953c-6.052-2.943-12.042-6.219-17.8-9.729a10.666 10.666 0 0 0 -11.115 18.208c6.339 3.87 12.932 7.469 19.594 10.708a10.666 10.666 0 0 0 9.323-19.187z"/><path d="m448.047 162.969a10.665 10.665 0 1 0 19.2-9.3c-3.214-6.641-6.807-13.234-10.677-19.6a10.668 10.668 0 0 0 -18.229 11.089c3.518 5.787 6.784 11.78 9.706 17.811z"/><path d="m281.307 467.839c-6.734.8-13.547 1.276-20.255 1.438a10.666 10.666 0 0 0 .248 21.323c.083 0 .172 0 .255-.005 7.375-.172 14.859-.7 22.255-1.573a10.667 10.667 0 0 0 -2.5-21.187z"/><path d="m220.6 466.391c-6.635-1.109-13.307-2.552-19.828-4.3a10.669 10.669 0 1 0 -5.51 20.615c7.177 1.917 14.521 3.505 21.828 4.724a10.666 10.666 0 0 0 3.51-21.042z"/><path d="m480.193 250.857a10.671 10.671 0 0 0 -10.927 10.4c-.172 6.745-.661 13.557-1.464 20.255a10.674 10.674 0 0 0 9.328 11.859 11.813 11.813 0 0 0 1.281.073 10.67 10.67 0 0 0 10.578-9.4c.875-7.359 1.417-14.844 1.6-22.255a10.664 10.664 0 0 0 -10.396-10.932z"/><path d="m447.453 372.865a10.679 10.679 0 0 0 -14.818 2.828c-3.792 5.578-7.891 11.042-12.193 16.234a10.664 10.664 0 1 0 16.427 13.6c4.729-5.708 9.245-11.714 13.411-17.849a10.663 10.663 0 0 0 -2.827-14.813z"/><path d="m462.151 200.969c1.729 6.495 3.167 13.167 4.276 19.833a10.669 10.669 0 0 0 10.51 8.922 10.883 10.883 0 0 0 1.755-.146 10.665 10.665 0 0 0 8.776-12.271c-1.214-7.333-2.8-14.68-4.7-21.828a10.666 10.666 0 0 0 -20.615 5.49z"/><path d="m391.745 420.589c-5.214 4.313-10.677 8.411-16.234 12.177a10.665 10.665 0 1 0 11.969 17.656c6.115-4.141 12.12-8.646 17.859-13.385a10.669 10.669 0 0 0 -13.594-16.448z"/><path d="m472.583 314.214a10.676 10.676 0 0 0 -13.4 6.922c-2.042 6.4-4.427 12.792-7.089 19.005a10.665 10.665 0 1 0 19.6 8.406c2.938-6.839 5.563-13.885 7.807-20.932a10.659 10.659 0 0 0 -6.918-13.401z"/><path d="m339.938 452.182c-6.151 2.635-12.547 5.016-19.01 7.078a10.665 10.665 0 1 0 6.479 20.323c7.109-2.266 14.151-4.885 20.927-7.786a10.668 10.668 0 0 0 -8.4-19.615z"/><path d="m165.792 234.208c0-17.482-11.495-31.49-29.286-35.69a44.412 44.412 0 0 0 -50.047 23.531 10.668 10.668 0 1 0 19.083 9.542 22.905 22.905 0 0 1 26.063-12.31c3.016.711 12.854 3.893 12.854 14.927 0 11.125-12.849 19.706-26.453 28.792-15.318 10.224-32.672 21.813-32.672 41a10.667 10.667 0 0 0 10.666 10.667h59.125a10.667 10.667 0 0 0 0-21.333h-42.26c4.469-4.234 10.786-8.453 16.984-12.594 16.851-11.25 35.943-24 35.943-46.532z"/><path d="m266.667 269.333a10.667 10.667 0 0 0 -10.667-10.666h-8.667v-56.667a10.668 10.668 0 0 0 -18.989-6.674l-54 67.336a10.669 10.669 0 0 0 8.323 17.338h43.333v30a10.667 10.667 0 1 0 21.333 0v-30h8.667a10.667 10.667 0 0 0 10.667-10.667zm-40.667-10.666h-21.1l21.1-26.318z"/><path d="m321.26 185.542a10.646 10.646 0 0 0 -12.552 8.367l-24 120a10.666 10.666 0 0 0 8.365 12.552 10.793 10.793 0 0 0 2.1.208 10.667 10.667 0 0 0 10.448-8.573l24-120a10.662 10.662 0 0 0 -8.361-12.554z"/><path d="m375.995 314.672a10.678 10.678 0 0 0 9.849-6.568l40-96a10.664 10.664 0 0 0 -9.844-14.771h-54a10.667 10.667 0 0 0 0 21.333h38l-33.844 81.234a10.68 10.68 0 0 0 9.839 14.776z"/></svg>