<?xml version="1.0" encoding="iso-8859-1"?>
<!-- Generator: Adobe Illustrator 19.0.0, SVG Export Plug-In . SVG Version: 6.00 Build 0)  -->
<svg version="1.1" id="Layer_1" xmlns="http://www.w3.org/2000/svg" xmlns:xlink="http://www.w3.org/1999/xlink" x="0px" y="0px"
	 viewBox="0 0 512 512" style="enable-background:new 0 0 512 512;" xml:space="preserve">
<g>
	<g>
		<path d="M437.02,74.981C388.667,26.629,324.38,0,256,0S123.333,26.629,74.98,74.981C26.629,123.333,0,187.62,0,256
			s26.629,132.667,74.98,181.019C123.333,485.371,187.62,512,256,512s132.667-26.629,181.02-74.981
			C485.371,388.667,512,324.38,512,256S485.371,123.333,437.02,74.981z M426.413,426.413C380.894,471.932,320.374,497,256,497
			s-124.894-25.068-170.413-70.587C40.068,380.894,15,320.374,15,256S40.068,131.106,85.587,85.587
			C131.106,40.068,191.626,15,256,15s124.894,25.068,170.413,70.587C471.932,131.106,497,191.626,497,256
			S471.932,380.894,426.413,426.413z"/>
	</g>
</g>
<g>
	<g>
		<path d="M373.63,241.336l-17.618-9.61c-3.637-1.984-8.192-0.643-10.175,2.993c-1.984,3.636-0.644,8.192,2.993,10.176l17.618,9.61
			c0.734,0.4,0.888,1.034,0.888,1.496s-0.154,1.095-0.888,1.496l-174.057,94.94c-0.704,0.383-1.305,0.195-1.686-0.031
			c-0.38-0.226-0.834-0.663-0.834-1.465V161.06c0-0.802,0.454-1.239,0.834-1.465c0.381-0.226,0.983-0.414,1.686-0.031
			l124.424,67.868c3.638,1.984,8.192,0.643,10.175-2.993c1.984-3.636,0.644-8.192-2.993-10.176l-124.424-67.868
			c-5.228-2.852-11.406-2.739-16.525,0.301c-5.121,3.04-8.177,8.409-8.177,14.364v189.88c0,5.955,3.057,11.324,8.177,14.364
			c2.65,1.573,5.583,2.362,8.521,2.362c2.739,0,5.483-0.686,8.004-2.062l174.057-94.94c5.37-2.929,8.706-8.548,8.706-14.664
			C382.336,249.884,379,244.265,373.63,241.336z"/>
	</g>
</g>
<g>
	<g>
		<path d="M322.723,47.157c-6.25-1.995-12.669-3.727-19.076-5.148c-4.044-0.897-8.049,1.655-8.945,5.699s1.654,8.05,5.698,8.946
			c5.965,1.322,11.941,2.935,17.761,4.793c0.759,0.242,1.527,0.357,2.283,0.357c3.176,0,6.125-2.034,7.143-5.221
			C328.847,52.637,326.67,48.417,322.723,47.157z"/>
	</g>
</g>
<g>
	<g>
		<path d="M176.102,443.963c-45.519-19.374-82.461-54.592-104.022-99.167c-1.804-3.729-6.289-5.289-10.018-3.486
			c-3.729,1.804-5.289,6.289-3.485,10.018c23.142,47.842,62.793,85.642,111.65,106.437c0.958,0.408,1.954,0.601,2.934,0.601
			c2.917,0,5.69-1.712,6.904-4.565C181.688,449.99,179.913,445.585,176.102,443.963z"/>
	</g>
</g>
<g>
	<g>
		<path d="M453.432,160.689c-19.785-40.91-52.669-75.438-92.597-97.223c-3.636-1.985-8.192-0.645-10.176,2.991
			c-1.984,3.636-0.645,8.192,2.992,10.176c37.203,20.298,67.844,52.469,86.277,90.586c1.295,2.677,3.971,4.236,6.757,4.236
			c1.095,0,2.208-0.241,3.26-0.75C453.674,168.903,455.235,164.418,453.432,160.689z"/>
	</g>
</g>
<g>
</g>
<g>
</g>
<g>
</g>
<g>
</g>
<g>
</g>
<g>
</g>
<g>
</g>
<g>
</g>
<g>
</g>
<g>
</g>
<g>
</g>
<g>
</g>
<g>
</g>
<g>
</g>
<g>
</g>
</svg>
